<mxfile host="app.diagrams.net" agent="Mozilla/5.0 (Macintosh; Intel Mac OS X 10_15_7) AppleWebKit/605.1.15 (KHTML, like Gecko) Version/18.5 Safari/605.1.15" version="28.0.7">
  <diagram id="P4yRx54tCu4BhojKKeX_" name="Page-1">
    <mxGraphModel dx="4593" dy="413" grid="1" gridSize="10" guides="1" tooltips="1" connect="1" arrows="1" fold="1" page="0" pageScale="1" pageWidth="850" pageHeight="1100" background="none" math="0" shadow="0">
      <root>
        <mxCell id="0" />
        <mxCell id="1" parent="0" />
        <mxCell id="node8" value="&lt;p style=&quot;margin:0px;margin-top:4px;text-align:center;&quot;&gt;&lt;b&gt;CalendarApiConnector&lt;/b&gt;&lt;/p&gt;&lt;hr size=&quot;1&quot;/&gt;&lt;p style=&quot;margin:0 0 0 4px;line-height:1.6;&quot;&gt;- CalendarApiConnector(): &lt;/p&gt;&lt;hr size=&quot;1&quot;/&gt;&lt;p style=&quot;margin:0 0 0 4px;line-height:1.6;&quot;&gt;- httpTransport: NetHttpTransport&lt;br/&gt;- TOKENS_DIRECTORY_PATH: String&lt;br/&gt;- SCOPES: List&amp;lt;String&amp;gt;&lt;br/&gt;- APPLICATION_NAME: String&lt;br/&gt;- calendarService: Calendar&lt;br/&gt;- CREDENTIALS_FILE_PATH: String&lt;br/&gt;- instance: CalendarApiConnector&lt;br/&gt;- JSON_FACTORY: JsonFactory&lt;/p&gt;&lt;hr size=&quot;1&quot;/&gt;&lt;p style=&quot;margin:0 0 0 4px;line-height:1.6;&quot;&gt;+ getInstance(): CalendarApiConnector&lt;br/&gt;+ getUserCalendars(): List&amp;lt;CalendarListEntry&amp;gt;&lt;br/&gt;+ getPrimaryCalendarEvents(DateTime, DateTime): Events&lt;br/&gt;- getCredentials(): Credential&lt;br/&gt;- initializeService(): void&lt;br/&gt;+ getAllCalendarsEvents(DateTime, DateTime): Events&lt;br/&gt;+ getCalendarEventsByCalendarId(String, DateTime, DateTime): Events&lt;/p&gt;" style="verticalAlign=top;align=left;overflow=fill;fontSize=14;fontFamily=Helvetica;html=1;rounded=0;shadow=0;comic=0;labelBackgroundColor=none;strokeWidth=1;" parent="1" vertex="1">
          <mxGeometry x="-146" y="4065" width="474" height="427" as="geometry" />
        </mxCell>
        <mxCell id="node7" value="&lt;p style=&quot;margin:0px;margin-top:4px;text-align:center;&quot;&gt;&lt;i&gt;&amp;lt;&amp;lt;interface&amp;gt;&amp;gt;&lt;/i&gt;&lt;br/&gt;&lt;b&gt;CalendarEvent&lt;/b&gt;&lt;/p&gt;&lt;hr size=&quot;1&quot;/&gt;&lt;p style=&quot;margin:0 0 0 4px;line-height:1.6;&quot;&gt;+ getRecurrenceRule(): String&lt;br/&gt;+ getEnd(): LocalDateTime&lt;br/&gt;+ getSummary(): String&lt;br/&gt;+ getPriority(): Integer&lt;br/&gt;+ getUrl(): String&lt;br/&gt;+ getAlarmMinutesBefore(): Integer&lt;br/&gt;+ getDescription(): String&lt;br/&gt;+ getClassification(): String&lt;br/&gt;+ getTransparency(): String&lt;br/&gt;+ getExceptionDates(): List&amp;lt;LocalDateTime&amp;gt;&lt;br/&gt;+ getContact(): String&lt;br/&gt;+ getStatus(): String&lt;br/&gt;+ getAttendees(): List&amp;lt;String&amp;gt;&lt;br/&gt;+ getStart(): LocalDateTime&lt;br/&gt;+ getOrganizer(): String&lt;br/&gt;+ getCategories(): List&amp;lt;String&amp;gt;&lt;br/&gt;+ getLocation(): String&lt;br/&gt;+ getLastModified(): LocalDateTime&lt;br/&gt;+ getCreated(): LocalDateTime&lt;br/&gt;+ toICal(): String&lt;br/&gt;+ getComment(): String&lt;br/&gt;+ getUid(): String&lt;br/&gt;+ getRecurrenceDates(): List&amp;lt;LocalDateTime&amp;gt;&lt;/p&gt;" style="verticalAlign=top;align=left;overflow=fill;fontSize=14;fontFamily=Helvetica;html=1;rounded=0;shadow=0;comic=0;labelBackgroundColor=none;strokeWidth=1;" parent="1" vertex="1">
          <mxGeometry x="-596" y="2593" width="321" height="591" as="geometry" />
        </mxCell>
        <mxCell id="node4" value="&lt;p style=&quot;margin:0px;margin-top:4px;text-align:center;&quot;&gt;&lt;b&gt;EventConverter&lt;/b&gt;&lt;/p&gt;&lt;hr size=&quot;1&quot;/&gt;&lt;p style=&quot;margin:0 0 0 4px;line-height:1.6;&quot;&gt;+ EventConverter(): &lt;/p&gt;&lt;hr size=&quot;1&quot;/&gt;&lt;p style=&quot;margin:0 0 0 4px;line-height:1.6;&quot;&gt;- convertResponseStatus(String): String&lt;br/&gt;- convertStatus(String): String&lt;br/&gt;+ convert(Event): CalendarEvent&lt;br/&gt;- convertDateTime(DateTime): LocalDateTime&lt;br/&gt;- convertVisibility(String): String&lt;br/&gt;- convertEventDateTime(EventDateTime): LocalDateTime&lt;/p&gt;" style="verticalAlign=top;align=left;overflow=fill;fontSize=14;fontFamily=Helvetica;html=1;rounded=0;shadow=0;comic=0;labelBackgroundColor=none;strokeWidth=1;" parent="1" vertex="1">
          <mxGeometry x="-1162" y="2739" width="391" height="209" as="geometry" />
        </mxCell>
        <mxCell id="node5" value="&lt;p style=&quot;margin:0px;margin-top:4px;text-align:center;&quot;&gt;&lt;b&gt;EventFactory&lt;/b&gt;&lt;/p&gt;&lt;hr size=&quot;1&quot;/&gt;&lt;p style=&quot;margin:0 0 0 4px;line-height:1.6;&quot;&gt;+ EventFactory(): &lt;/p&gt;&lt;hr size=&quot;1&quot;/&gt;&lt;p style=&quot;margin:0 0 0 4px;line-height:1.6;&quot;&gt;+ builder(): MyEventBuilder&lt;br/&gt;+ createFromGoogle(Event): CalendarEvent&lt;br/&gt;+ createSimple(String, LocalDateTime, LocalDateTime): CalendarEvent&lt;br/&gt;+ createFromData(String, String, String, String, LocalDateTime, LocalDateTime, String, List&amp;lt;String&amp;gt;): CalendarEvent&lt;/p&gt;" style="verticalAlign=top;align=left;overflow=fill;fontSize=14;fontFamily=Helvetica;html=1;rounded=0;shadow=0;comic=0;labelBackgroundColor=none;strokeWidth=1;" parent="1" vertex="1">
          <mxGeometry x="-1152" y="3055" width="469" height="161" as="geometry" />
        </mxCell>
        <mxCell id="node6" value="&lt;p style=&quot;margin:0px;margin-top:4px;text-align:center;&quot;&gt;&lt;b&gt;G2iCal&lt;/b&gt;&lt;/p&gt;&lt;hr size=&quot;1&quot;/&gt;&lt;p style=&quot;margin:0 0 0 4px;line-height:1.6;&quot;&gt;+ G2iCal(): &lt;/p&gt;&lt;hr size=&quot;1&quot;/&gt;&lt;p style=&quot;margin:0 0 0 4px;line-height:1.6;&quot;&gt;~ EXPORT_FILE_PATH: String&lt;/p&gt;&lt;hr size=&quot;1&quot;/&gt;&lt;p style=&quot;margin:0 0 0 4px;line-height:1.6;&quot;&gt;+ main(String[]): void&lt;br/&gt;- displayInfoIfPorted(String[]): void&lt;br/&gt;- displayWelcomeMessage(): void&lt;br/&gt;- displayCalendarList(List&amp;lt;CalendarListEntry&amp;gt;): void&lt;br/&gt;- getUserInputEndDate(DateTime, String[]): DateTime&lt;br/&gt;- getUserInputFileName(String[]): String&lt;br/&gt;- getUserInputStartDate(String[]): DateTime&lt;br/&gt;- getUserInputCalendar(String[]): String&lt;br/&gt;- promptForValidInput(Scanner, String, Function&amp;lt;String, ValidationResult&amp;gt;): String&lt;/p&gt;" style="verticalAlign=top;align=left;overflow=fill;fontSize=14;fontFamily=Helvetica;html=1;rounded=0;shadow=0;comic=0;labelBackgroundColor=none;strokeWidth=1;" parent="1" vertex="1">
          <mxGeometry x="-364" y="2086" width="450" height="307" as="geometry" />
        </mxCell>
        <mxCell id="node3" value="&lt;p style=&quot;margin:0px;margin-top:4px;text-align:center;&quot;&gt;&lt;b&gt;ICal&lt;/b&gt;&lt;/p&gt;&lt;hr size=&quot;1&quot;/&gt;&lt;p style=&quot;margin:0 0 0 4px;line-height:1.6;&quot;&gt;+ ICal(Events): &lt;br/&gt;+ ICal(): &lt;/p&gt;&lt;hr size=&quot;1&quot;/&gt;&lt;p style=&quot;margin:0 0 0 4px;line-height:1.6;&quot;&gt;- events: List&amp;lt;CalendarEvent&amp;gt;&lt;/p&gt;&lt;hr size=&quot;1&quot;/&gt;&lt;p style=&quot;margin:0 0 0 4px;line-height:1.6;&quot;&gt;+ exportICalToFile(String, String): boolean&lt;br/&gt;+ addGoogleEvent(Event): void&lt;br/&gt;+ getICalString(): String&lt;br/&gt;- foldLines(String): String&lt;/p&gt;" style="verticalAlign=top;align=left;overflow=fill;fontSize=14;fontFamily=Helvetica;html=1;rounded=0;shadow=0;comic=0;labelBackgroundColor=none;strokeWidth=1;" parent="1" vertex="1">
          <mxGeometry x="-161" y="2649" width="293" height="211" as="geometry" />
        </mxCell>
        <mxCell id="node2" value="&lt;p style=&quot;margin:0px;margin-top:4px;text-align:center;&quot;&gt;&lt;b&gt;ICalExportException&lt;/b&gt;&lt;/p&gt;&lt;hr size=&quot;1&quot;/&gt;&lt;p style=&quot;margin:0 0 0 4px;line-height:1.6;&quot;&gt;+ ICalExportException(String, Throwable): &lt;br/&gt;+ ICalExportException(String): &lt;/p&gt;" style="verticalAlign=top;align=left;overflow=fill;fontSize=14;fontFamily=Helvetica;html=1;rounded=0;shadow=0;comic=0;labelBackgroundColor=none;strokeWidth=1;" parent="1" vertex="1">
          <mxGeometry x="-150" y="2970" width="296" height="94" as="geometry" />
        </mxCell>
        <mxCell id="node0" value="&lt;p style=&quot;margin:0px;margin-top:4px;text-align:center;&quot;&gt;&lt;b&gt;InputValidator&lt;/b&gt;&lt;/p&gt;&lt;hr size=&quot;1&quot;/&gt;&lt;p style=&quot;margin:0 0 0 4px;line-height:1.6;&quot;&gt;+ InputValidator(): &lt;/p&gt;&lt;hr size=&quot;1&quot;/&gt;&lt;p style=&quot;margin:0 0 0 4px;line-height:1.6;&quot;&gt;- DATE_FORMATTER: DateTimeFormatter&lt;/p&gt;&lt;hr size=&quot;1&quot;/&gt;&lt;p style=&quot;margin:0 0 0 4px;line-height:1.6;&quot;&gt;+ convertToDateTime(String, boolean): DateTime&lt;br/&gt;+ validateCalendarIndex(String, List&amp;lt;CalendarListEntry&amp;gt;): ValidationResult&lt;br/&gt;+ validateFileName(String): ValidationResult&lt;br/&gt;+ findCalendarByName(String, List&amp;lt;CalendarListEntry&amp;gt;): CalendarListEntry&lt;br/&gt;+ normalizeFileName(String): String&lt;br/&gt;+ validateDate(String, String): ValidationResult&lt;br/&gt;+ getCalendarIdByIndex(int, List&amp;lt;CalendarListEntry&amp;gt;): String?&lt;br/&gt;+ validateCalendarName(String, List&amp;lt;CalendarListEntry&amp;gt;): ValidationResult&lt;br/&gt;+ validateDateRange(DateTime, String): ValidationResult&lt;/p&gt;" style="verticalAlign=top;align=left;overflow=fill;fontSize=14;fontFamily=Helvetica;html=1;rounded=0;shadow=0;comic=0;labelBackgroundColor=none;strokeWidth=1;" parent="1" vertex="1">
          <mxGeometry x="-136" y="3620" width="495" height="307" as="geometry" />
        </mxCell>
        <mxCell id="node9" value="&lt;p style=&quot;margin:0px;margin-top:4px;text-align:center;&quot;&gt;&lt;b&gt;MyEvent&lt;/b&gt;&lt;/p&gt;&lt;hr size=&quot;1&quot;/&gt;&lt;p style=&quot;margin:0 0 0 4px;line-height:1.6;&quot;&gt;~ MyEvent(MyEventBuilder): &lt;br/&gt;+ MyEvent(): &lt;/p&gt;&lt;hr size=&quot;1&quot;/&gt;&lt;p style=&quot;margin:0 0 0 4px;line-height:1.6;&quot;&gt;- uid: String&lt;br/&gt;- start: LocalDateTime&lt;br/&gt;- organizer: String&lt;br/&gt;- end: LocalDateTime&lt;br/&gt;- exceptionDates: List&amp;lt;LocalDateTime&amp;gt;&lt;br/&gt;- url: String&lt;br/&gt;- status: String&lt;br/&gt;- priority: Integer&lt;br/&gt;- recurrenceDates: List&amp;lt;LocalDateTime&amp;gt;&lt;br/&gt;- ICAL_DATE_FORMAT: DateTimeFormatter&lt;br/&gt;- comment: String&lt;br/&gt;- summary: String&lt;br/&gt;- location: String&lt;br/&gt;- attendees: List&amp;lt;String&amp;gt;&lt;br/&gt;- categories: List&amp;lt;String&amp;gt;&lt;br/&gt;- alarmMinutesBefore: Integer&lt;br/&gt;- recurrenceRule: String&lt;br/&gt;- description: String&lt;br/&gt;- contact: String&lt;br/&gt;- created: LocalDateTime&lt;br/&gt;- transparency: String&lt;br/&gt;- classification: String&lt;br/&gt;- lastModified: LocalDateTime&lt;/p&gt;&lt;hr size=&quot;1&quot;/&gt;&lt;p style=&quot;margin:0 0 0 4px;line-height:1.6;&quot;&gt;+ getRecurrenceDates(): List&amp;lt;LocalDateTime&amp;gt;&lt;br/&gt;+ getStatus(): String&lt;br/&gt;+ getUrl(): String&lt;br/&gt;+ getClassification(): String&lt;br/&gt;+ getOrganizer(): String&lt;br/&gt;+ getAlarmMinutesBefore(): Integer&lt;br/&gt;+ getRecurrenceRule(): String&lt;br/&gt;+ getAttendees(): List&amp;lt;String&amp;gt;&lt;br/&gt;+ getContact(): String&lt;br/&gt;+ getTransparency(): String&lt;br/&gt;+ setDescription(String): void&lt;br/&gt;+ getSummary(): String&lt;br/&gt;+ getCreated(): LocalDateTime&lt;br/&gt;+ getLastModified(): LocalDateTime&lt;br/&gt;+ setStart(LocalDateTime): void&lt;br/&gt;+ getStart(): LocalDateTime&lt;br/&gt;+ toICal(): String&lt;br/&gt;+ getLocation(): String&lt;br/&gt;+ getCategories(): List&amp;lt;String&amp;gt;&lt;br/&gt;+ getComment(): String&lt;br/&gt;+ setSummary(String): void&lt;br/&gt;- updateLastModified(): void&lt;br/&gt;+ getPriority(): Integer&lt;br/&gt;+ setEnd(LocalDateTime): void&lt;br/&gt;+ getDescription(): String&lt;br/&gt;+ setLocation(String): void&lt;br/&gt;- escapeText(String): String&lt;br/&gt;+ getEnd(): LocalDateTime&lt;br/&gt;+ getUid(): String&lt;br/&gt;+ getExceptionDates(): List&amp;lt;LocalDateTime&amp;gt;&lt;/p&gt;" style="verticalAlign=top;align=left;overflow=fill;fontSize=14;fontFamily=Helvetica;html=1;rounded=0;shadow=0;comic=0;labelBackgroundColor=none;strokeWidth=1;" parent="1" vertex="1">
          <mxGeometry x="-643" y="3294" width="321" height="1363" as="geometry" />
        </mxCell>
        <mxCell id="node1" value="&lt;p style=&quot;margin:0px;margin-top:4px;text-align:center;&quot;&gt;&lt;b&gt;MyEventBuilder&lt;/b&gt;&lt;/p&gt;&lt;hr size=&quot;1&quot;/&gt;&lt;p style=&quot;margin:0 0 0 4px;line-height:1.6;&quot;&gt;+ MyEventBuilder(): &lt;/p&gt;&lt;hr size=&quot;1&quot;/&gt;&lt;p style=&quot;margin:0 0 0 4px;line-height:1.6;&quot;&gt;~ summary: String&lt;br/&gt;~ url: String&lt;br/&gt;~ contact: String&lt;br/&gt;~ description: String&lt;br/&gt;~ classification: String&lt;br/&gt;~ comment: String&lt;br/&gt;~ alarmMinutesBefore: Integer&lt;br/&gt;~ uid: String&lt;br/&gt;~ location: String&lt;br/&gt;~ exceptionDates: List&amp;lt;LocalDateTime&amp;gt;&lt;br/&gt;~ lastModified: LocalDateTime&lt;br/&gt;~ recurrenceDates: List&amp;lt;LocalDateTime&amp;gt;&lt;br/&gt;~ priority: Integer&lt;br/&gt;~ attendees: List&amp;lt;String&amp;gt;&lt;br/&gt;~ created: LocalDateTime&lt;br/&gt;~ status: String&lt;br/&gt;~ start: LocalDateTime&lt;br/&gt;~ transparency: String&lt;br/&gt;~ categories: List&amp;lt;String&amp;gt;&lt;br/&gt;~ end: LocalDateTime&lt;br/&gt;~ organizer: String&lt;br/&gt;~ recurrenceRule: String&lt;/p&gt;&lt;hr size=&quot;1&quot;/&gt;&lt;p style=&quot;margin:0 0 0 4px;line-height:1.6;&quot;&gt;+ setPriorityNormal(): MyEventBuilder&lt;br/&gt;+ addExceptionDate(LocalDateTime): MyEventBuilder&lt;br/&gt;+ setAlarm15MinutesBefore(): MyEventBuilder&lt;br/&gt;+ setCreated(LocalDateTime): MyEventBuilder&lt;br/&gt;+ setPriorityHigh(): MyEventBuilder&lt;br/&gt;+ setExceptionDates(List&amp;lt;LocalDateTime&amp;gt;): MyEventBuilder&lt;br/&gt;+ setTransparencyOpaque(): MyEventBuilder&lt;br/&gt;+ setAttendees(List&amp;lt;String&amp;gt;): MyEventBuilder&lt;br/&gt;+ setClassificationPrivate(): MyEventBuilder&lt;br/&gt;+ setAlarm1HourBefore(): MyEventBuilder&lt;br/&gt;+ setRecurrenceDates(List&amp;lt;LocalDateTime&amp;gt;): MyEventBuilder&lt;br/&gt;+ setTransparencyTransparent(): MyEventBuilder&lt;br/&gt;+ setAlarm30MinutesBefore(): MyEventBuilder&lt;br/&gt;+ setRecurrenceRule(String): MyEventBuilder&lt;br/&gt;+ setPriority(Integer): MyEventBuilder&lt;br/&gt;+ addCategory(String): MyEventBuilder&lt;br/&gt;+ setPriorityLow(): MyEventBuilder&lt;br/&gt;+ setCategories(List&amp;lt;String&amp;gt;): MyEventBuilder&lt;br/&gt;+ setEnd(LocalDateTime): MyEventBuilder&lt;br/&gt;+ setStatus(String): MyEventBuilder&lt;br/&gt;+ setContact(String): MyEventBuilder&lt;br/&gt;+ addAttendee(String): MyEventBuilder&lt;br/&gt;+ setUrl(String): MyEventBuilder&lt;br/&gt;+ setTransparency(String): MyEventBuilder&lt;br/&gt;+ setStatusConfirmed(): MyEventBuilder&lt;br/&gt;+ setLastModified(LocalDateTime): MyEventBuilder&lt;br/&gt;+ build(): MyEvent&lt;br/&gt;+ setAlarm1DayBefore(): MyEventBuilder&lt;br/&gt;+ setStart(LocalDateTime): MyEventBuilder&lt;br/&gt;+ setLocation(String): MyEventBuilder&lt;br/&gt;+ setStatusTentative(): MyEventBuilder&lt;br/&gt;+ setStatusCancelled(): MyEventBuilder&lt;br/&gt;+ setClassification(String): MyEventBuilder&lt;br/&gt;+ setClassificationPublic(): MyEventBuilder&lt;br/&gt;+ setUid(String): MyEventBuilder&lt;br/&gt;+ setOrganizer(String): MyEventBuilder&lt;br/&gt;+ setSummary(String): MyEventBuilder&lt;br/&gt;+ setAlarmMinutesBefore(Integer): MyEventBuilder&lt;br/&gt;+ setClassificationConfidential(): MyEventBuilder&lt;br/&gt;+ setDescription(String): MyEventBuilder&lt;br/&gt;+ setComment(String): MyEventBuilder&lt;br/&gt;+ addRecurrenceDate(LocalDateTime): MyEventBuilder&lt;/p&gt;" style="verticalAlign=top;align=left;overflow=fill;fontSize=14;fontFamily=Helvetica;html=1;rounded=0;shadow=0;comic=0;labelBackgroundColor=none;strokeWidth=1;" parent="1" vertex="1">
          <mxGeometry x="-1152" y="3306" width="416" height="1603" as="geometry" />
        </mxCell>
        <mxCell id="node10" value="&lt;p style=&quot;margin:0px;margin-top:4px;text-align:center;&quot;&gt;&lt;b&gt;ValidationResult&lt;/b&gt;&lt;/p&gt;&lt;hr size=&quot;1&quot;/&gt;&lt;p style=&quot;margin:0 0 0 4px;line-height:1.6;&quot;&gt;+ ValidationResult(boolean, String): &lt;/p&gt;&lt;hr size=&quot;1&quot;/&gt;&lt;p style=&quot;margin:0 0 0 4px;line-height:1.6;&quot;&gt;- valid: boolean&lt;br/&gt;- errorMessage: String&lt;/p&gt;&lt;hr size=&quot;1&quot;/&gt;&lt;p style=&quot;margin:0 0 0 4px;line-height:1.6;&quot;&gt;+ getErrorMessage(): String&lt;br/&gt;+ isValid(): boolean&lt;/p&gt;" style="verticalAlign=top;align=left;overflow=fill;fontSize=14;fontFamily=Helvetica;html=1;rounded=0;shadow=0;comic=0;labelBackgroundColor=none;strokeWidth=1;" parent="1" vertex="1">
          <mxGeometry x="26" y="3341" width="254" height="163" as="geometry" />
        </mxCell>
        <mxCell id="edge2" value="" style="html=1;rounded=1;edgeStyle=orthogonalEdgeStyle;dashed=1;startArrow=none;endArrow=openThin;endSize=12;strokeColor=#595959;exitX=0.000;exitY=0.500;exitDx=0;exitDy=0;entryX=0.500;entryY=0.000;entryDx=0;entryDy=0;" parent="1" source="node4" target="node1" edge="1">
          <mxGeometry width="50" height="50" relative="1" as="geometry">
            <Array as="points">
              <mxPoint x="-1180" y="2843" />
              <mxPoint x="-1180" y="3255" />
              <mxPoint x="-944" y="3255" />
            </Array>
          </mxGeometry>
        </mxCell>
        <mxCell id="label14" value="«create»" style="edgeLabel;resizable=0;html=1;align=left;verticalAlign=top;strokeColor=default;" parent="edge2" vertex="1" connectable="0">
          <mxGeometry x="-1188" y="2875" as="geometry" />
        </mxCell>
        <mxCell id="edge7" value="" style="html=1;rounded=1;edgeStyle=orthogonalEdgeStyle;dashed=1;startArrow=none;endArrow=openThin;endSize=12;strokeColor=#595959;exitX=0.500;exitY=1.000;exitDx=0;exitDy=0;entryX=0.500;entryY=0.000;entryDx=0;entryDy=0;" parent="1" source="node5" target="node1" edge="1">
          <mxGeometry width="50" height="50" relative="1" as="geometry">
            <Array as="points">
              <mxPoint x="-917" y="3255" />
              <mxPoint x="-944" y="3255" />
            </Array>
          </mxGeometry>
        </mxCell>
        <mxCell id="label44" value="«create»" style="edgeLabel;resizable=0;html=1;align=left;verticalAlign=top;strokeColor=default;" parent="edge7" vertex="1" connectable="0">
          <mxGeometry x="-996" y="3275" as="geometry" />
        </mxCell>
        <mxCell id="edge8" value="" style="html=1;rounded=1;edgeStyle=orthogonalEdgeStyle;dashed=1;startArrow=none;endArrow=openThin;endSize=12;strokeColor=#595959;exitX=0.775;exitY=1.000;exitDx=0;exitDy=0;entryX=0.500;entryY=0.000;entryDx=0;entryDy=0;" parent="1" source="node6" target="node3" edge="1">
          <mxGeometry width="50" height="50" relative="1" as="geometry">
            <Array as="points" />
          </mxGeometry>
        </mxCell>
        <mxCell id="label50" value="«create»" style="edgeLabel;resizable=0;html=1;align=left;verticalAlign=top;strokeColor=default;" parent="edge8" vertex="1" connectable="0">
          <mxGeometry x="-15" y="2511" as="geometry" />
        </mxCell>
        <mxCell id="edge5" value="" style="html=1;rounded=1;edgeStyle=orthogonalEdgeStyle;dashed=0;startArrow=diamondThinstartSize=12;endArrow=openThin;endSize=12;strokeColor=#595959;exitX=0.000;exitY=0.500;exitDx=0;exitDy=0;entryX=1.000;entryY=0.273;entryDx=0;entryDy=0;" parent="1" source="node3" target="node7" edge="1">
          <mxGeometry width="50" height="50" relative="1" as="geometry">
            <Array as="points" />
          </mxGeometry>
        </mxCell>
        <mxCell id="label30" value="1" style="edgeLabel;resizable=0;html=1;align=left;verticalAlign=top;strokeColor=default;" parent="edge5" vertex="1" connectable="0">
          <mxGeometry x="-178" y="2751" as="geometry" />
        </mxCell>
        <mxCell id="label34" value="*" style="edgeLabel;resizable=0;html=1;align=left;verticalAlign=top;strokeColor=default;" parent="edge5" vertex="1" connectable="0">
          <mxGeometry x="-270" y="2750" as="geometry" />
        </mxCell>
        <mxCell id="label35" value="events" style="edgeLabel;resizable=0;html=1;align=left;verticalAlign=top;strokeColor=default;" parent="edge5" vertex="1" connectable="0">
          <mxGeometry x="-270" y="2725" as="geometry" />
        </mxCell>
        <mxCell id="edge6" value="" style="html=1;rounded=1;edgeStyle=orthogonalEdgeStyle;dashed=1;startArrow=none;endArrow=openThin;endSize=12;strokeColor=#595959;exitX=0.545;exitY=1.000;exitDx=0;exitDy=0;entryX=0.500;entryY=0.000;entryDx=0;entryDy=0;" parent="1" source="node3" target="node2" edge="1">
          <mxGeometry width="50" height="50" relative="1" as="geometry">
            <Array as="points" />
          </mxGeometry>
        </mxCell>
        <mxCell id="label38" value="«create»" style="edgeLabel;resizable=0;html=1;align=left;verticalAlign=top;strokeColor=default;" parent="edge6" vertex="1" connectable="0">
          <mxGeometry x="-28" y="2839" as="geometry" />
        </mxCell>
        <mxCell id="edge3" value="" style="html=1;rounded=1;edgeStyle=orthogonalEdgeStyle;dashed=1;startArrow=none;endArrow=openThin;endSize=12;strokeColor=#595959;exitX=0.585;exitY=0.000;exitDx=0;exitDy=0;entryX=0.500;entryY=1.000;entryDx=0;entryDy=0;" parent="1" source="node0" target="node10" edge="1">
          <mxGeometry width="50" height="50" relative="1" as="geometry">
            <Array as="points" />
          </mxGeometry>
        </mxCell>
        <mxCell id="label20" value="«create»" style="edgeLabel;resizable=0;html=1;align=left;verticalAlign=top;strokeColor=default;" parent="edge3" vertex="1" connectable="0">
          <mxGeometry x="127" y="3577" as="geometry" />
        </mxCell>
        <mxCell id="edge0" value="" style="html=1;rounded=1;edgeStyle=orthogonalEdgeStyle;dashed=1;startArrow=none;endArrow=block;endSize=12;strokeColor=#008200;exitX=0.646;exitY=0.000;exitDx=0;exitDy=0;entryX=0.500;entryY=1.000;entryDx=0;entryDy=0;" parent="1" source="node9" target="node7" edge="1">
          <mxGeometry width="50" height="50" relative="1" as="geometry">
            <Array as="points" />
          </mxGeometry>
        </mxCell>
        <mxCell id="edge4" value="" style="html=1;rounded=1;edgeStyle=orthogonalEdgeStyle;dashed=1;startArrow=none;endArrow=openThin;endSize=12;strokeColor=#595959;exitX=1.000;exitY=0.418;exitDx=0;exitDy=0;entryX=0.000;entryY=0.500;entryDx=0;entryDy=0;" parent="1" source="node1" target="node9" edge="1">
          <mxGeometry width="50" height="50" relative="1" as="geometry">
            <Array as="points" />
          </mxGeometry>
        </mxCell>
        <mxCell id="label26" value="«create»" style="edgeLabel;resizable=0;html=1;align=left;verticalAlign=top;strokeColor=default;" parent="edge4" vertex="1" connectable="0">
          <mxGeometry x="-715" y="3956" as="geometry" />
        </mxCell>
        <mxCell id="edge1" value="" style="html=1;rounded=1;edgeStyle=orthogonalEdgeStyle;dashed=0;startArrow=circlePlus;startFill=0;endArrow=none;strokeColor=#820000;exitX=0.334;exitY=1.000;exitDx=0;exitDy=0;entryX=0.500;entryY=0.000;entryDx=0;entryDy=0;" parent="1" source="node10" target="node0" edge="1">
          <mxGeometry width="50" height="50" relative="1" as="geometry">
            <Array as="points" />
          </mxGeometry>
        </mxCell>
      </root>
    </mxGraphModel>
  </diagram>
</mxfile>
